<svg width="794" height="2040" viewBox="0 0 794 2040" fill="none" xmlns="http://www.w3.org/2000/svg">
<path opacity="0.3" d="M324.611 1921.77C323.695 1921.24 322.759 1920.72 321.74 1920.15C312.033 1914.75 297.664 1907.84 279.28 1902.53C242.706 1891.4 188.709 1885.79 130.426 1906.56C72.1828 1927.18 23.3723 1960.82 -9.55504 1988.86C-26.0835 2002.92 -38.8468 2015.49 -47.4223 2024.71C-55.4438 2033.57 -60.625 2039.27 -60.625 2039.27L-60.3577 2039.87C-60.3577 2039.87 -52.6489 2039.88 -40.7026 2039.9C-28.3172 2039.58 -10.6123 2039.12 10.3703 2037.96C52.4385 2035.58 107.292 2031.06 162.13 2020.1C216.856 2009.02 258.596 1986.93 288.85 1967.04C303.856 1956.89 315.784 1947.66 323.984 1940.8C325.632 1939.4 327.088 1938.13 328.426 1936.94C393.722 1929.37 456.48 1928.63 515.793 1934.66C528.38 1943.81 541.507 1952.48 555.304 1960.5L555.441 1960.58C562.891 1964.83 572.386 1962.22 576.632 1954.76C580.878 1947.31 578.274 1937.83 570.812 1933.58L569.318 1932.73C557.606 1926.06 546.221 1918.51 535.03 1910.55C525.513 1888.94 522.816 1864.19 528.368 1841.25C531.921 1824.96 538.653 1808.45 548.466 1791.46C549.302 1791.23 550.138 1791.01 551.06 1790.76C560.719 1788.23 572.517 1784.05 586.805 1779.3C614.822 1769.15 649.083 1755.77 680.262 1724.84C711.625 1693.88 739.429 1658.17 759.966 1629.76C780.413 1601.32 793.31 1580.44 793.31 1580.44L792.997 1579.87C792.997 1579.87 768.477 1578.44 732.51 1584.44C696.651 1590.35 648.808 1603.88 605.84 1633.41C562.835 1663.04 541.019 1706.01 535.089 1739.56C531.394 1759.9 532.583 1775.74 534.129 1785.22C523.976 1803.06 516.98 1820.49 513.211 1837.75C508.729 1856.28 508.743 1875.49 512.893 1893.79C503.096 1885.91 493.46 1877.74 484.149 1869.09C484.127 1867.68 483.85 1866.26 483.022 1865C464.307 1836.43 456.134 1799.26 459.939 1760.24C461.537 1741.8 465.632 1722.83 472.293 1702.52C473.043 1702.07 473.803 1701.62 474.599 1701.14C483.564 1696 495.083 1688.44 507.987 1679.17C534.362 1660.36 565.521 1635.49 590.331 1594.84C615.164 1554.05 635.685 1510.42 650.985 1476.33C657.813 1460.62 664.334 1445.62 669.156 1434.53C673.123 1424.5 675.693 1418.03 675.693 1418.03L675.27 1417.53C675.27 1417.53 668.993 1418.91 658.128 1422.11C647.12 1425.18 631.785 1430.44 613.909 1438.48C578.248 1454.41 532.148 1482.18 495.475 1524.82C458.677 1567.47 447.414 1617.27 448.429 1652.56C448.972 1670.45 452.346 1684.89 454.953 1694.38C455.57 1696.43 456.198 1698.23 456.797 1699.88C450.192 1720.49 446.098 1739.88 444.45 1758.8C441.734 1786.6 444.776 1813.59 452.92 1837.81C438.486 1822.4 424.676 1806.39 411.726 1790.03C404.322 1780.51 397.222 1770.76 390.247 1760.9C383.54 1734.18 381.025 1705.45 382.922 1675.89C384.189 1652.96 387.695 1629.39 393.378 1604.85C394.16 1604.17 394.949 1603.48 395.792 1602.73C404.197 1595.12 415.579 1584.2 429.063 1570.76C455.353 1543.46 486.71 1506.8 512.647 1454.26C538.415 1401.53 559.743 1347.34 574.803 1305.36C590.393 1263.87 598.541 1234.52 598.541 1234.52L598.04 1234.1C598.04 1234.1 570.939 1246.91 532.936 1272.86C495.588 1299.2 447.532 1339.96 410.517 1395.32C373.228 1450.59 364.467 1509.5 367.176 1550.1C368.038 1570.41 372.118 1586.73 375.627 1597.7C376.332 1599.99 377.003 1601.99 377.643 1603.81C372.103 1628.33 368.67 1651.93 367.404 1674.96C366.225 1693.29 366.697 1711.34 368.714 1728.86C346.431 1693.91 326.764 1657.22 309.753 1619.29C303.412 1552.34 305.16 1488.84 315.334 1429.79C316.09 1429.06 316.865 1428.32 317.69 1427.51C326.015 1419.64 336.113 1407.9 348.836 1393.92C373.108 1365.16 401.469 1328.04 425.393 1278.76C449.107 1229.11 472.585 1179.21 492.374 1140.69C502.003 1121.34 510.512 1105.17 516.58 1093.84C522.118 1082.67 525.689 1075.47 525.689 1075.47L525.284 1074.96C525.284 1074.96 518.193 1076.91 505.775 1081.22C493.208 1085.36 475.526 1092.16 455.123 1103C414.328 1123.97 361.193 1162.45 323.25 1219.88C284.934 1277.31 280.107 1337.62 285.761 1377.26C287.789 1397.24 293.528 1413.08 297.288 1423.61C298.124 1425.84 298.918 1427.81 299.661 1429.59C291.907 1475.68 289.138 1524.35 291.163 1575.12C268.352 1516.99 250.878 1456.66 238.251 1395.29C233.725 1374.51 230.098 1353.53 226.919 1332.46C226.967 1332.28 227.057 1332.13 227.085 1331.96C237.89 1274.49 258.182 1218.61 286.387 1167.73C295.937 1164.12 310.064 1158.35 326.072 1150.43C355.812 1135.91 390.005 1115 420.685 1083.41C451.388 1051.54 480.021 1020.38 508.308 1000.68C522.194 991.499 535.504 983.005 545.408 979.31C555.261 974.867 561.625 971.998 561.625 971.998L561.704 971.351C561.704 971.351 556.487 967.985 545.881 962.696C535.272 956.72 518.947 951.977 497.35 948.836C454.535 943.076 392.677 957.084 344.095 993.786C294.942 1030.38 276.971 1079.68 271.84 1114.17C268.746 1135.52 270.066 1152.29 271.588 1162.23C249.706 1202.11 232.735 1245 220.995 1289.24C220.918 1288.61 220.823 1287.97 220.745 1287.32C215.688 1251.12 211.066 1214.86 209.07 1178.33C207.131 1153.19 205.823 1128 204.809 1102.8C220.408 1054.83 241.639 1009.01 268.223 966.06C269.089 965.839 269.973 965.606 270.914 965.356C280.213 962.92 292.478 958.718 306.873 953.222C334.92 941.357 368.588 924.006 395.612 890.471C422.783 856.849 445.596 819.671 462.859 790.028C480.049 760.522 490.901 738.852 490.901 738.852L490.541 738.307C490.541 738.307 466.421 738.575 431.453 747.346C396.691 756.044 350.527 774.184 311.882 807.462C273.216 840.822 257.361 883.295 253.819 915.247C251.498 931.004 252.483 944.739 253.453 954.073C253.66 955.97 253.892 957.658 254.118 959.219C234.231 991.518 217.351 1025.42 203.465 1060.58C202.465 1007.79 203.478 954.944 206.73 902.214C207.611 901.217 208.27 900.001 208.554 898.604C219.245 845.504 249.5 793.897 293.663 751.566C303.899 751.145 319.21 750.196 336.736 748.08C368.905 743.947 407.891 737.283 449.951 714.596C492.061 691.745 532.486 664.077 563.396 642.282C594.098 620.228 614.33 603.357 614.33 603.357L614.194 602.716C614.194 602.716 589.232 594.879 550.045 591.009C510.979 586.84 456.874 587.705 402.86 606.538C348.672 625.226 313.532 664.203 297.343 696.099C287.28 715.508 283.18 731.811 281.499 741.698C251.499 770.766 227.715 804.012 211.752 839.185C214.88 806.234 218.751 773.341 223.629 740.592C225.354 729.357 227.198 718.127 229.099 706.89C240.065 665.11 266.569 624.843 306.63 588.64C315.943 589.271 329.746 589.816 345.7 589.074C360.199 588.3 376.595 586.495 394.176 581.079C412.595 575.12 429.309 566.876 445.9 554.333C478.91 529.022 506.943 498.591 528.763 474.668C547.999 453.005 565.586 433.206 565.586 433.206L565.394 432.582C565.394 432.582 543.026 425.945 508.174 425.85C473.529 425.602 426.693 432.548 384.152 453.921C362.809 464.454 346.069 479.123 334.555 492.794C322.22 507.063 312.783 522.613 306.588 536.893C298.965 554.245 296.149 569.062 295.094 578.119C273.184 598.092 255.097 619.284 241.224 641.355C249.107 602.159 258.121 563.16 268.537 524.573C268.809 524.138 269.19 523.799 269.375 523.296C283.485 484.188 311.839 452.013 334.918 428.371C349.139 414.043 364.686 400.223 381.556 386.646C392.003 386.759 407.643 386.427 426.026 384.434C460.009 380.29 501.327 373.044 545.954 346.804C590.032 320.571 630.041 289.178 660.032 264.052C689.93 238.967 709.098 220.086 709.098 220.086L708.906 219.462C708.906 219.462 682.551 214.253 642.235 214.144C602.055 214.02 547.325 219.577 494.318 240.839C441.625 261.535 405.966 299.779 388.682 330.963C377.783 349.943 372.455 366.148 369.91 376.021C353.293 389.498 337.961 403.234 323.82 417.484C312.349 429.228 299.658 443.059 287.846 458.756C295.164 435.666 303.005 412.758 311.463 390.101C321.59 365.155 333.421 339.701 347.199 313.231C359.028 291.866 371.631 271.31 384.846 251.602C385.774 251.246 386.712 250.889 387.714 250.494C398.024 246.183 412.943 240.065 430.019 231.738C464.087 214.702 505.313 189.389 545.928 151.581C586.527 113.48 624.891 76.2944 658.513 51.4301C666.728 44.526 674.767 39.9959 681.973 34.987C689.163 29.8427 695.7 25.9531 701.269 23.1595C712.122 17.077 719.124 13.1511 719.124 13.1511L719.095 12.4979C719.095 12.4979 712.287 10.0967 699.159 6.67722C692.532 4.725 684.405 3.09932 674.967 2.40494C665.532 1.57298 654.2 0.046531 642.395 0.958791C594.213 1.57599 527.929 19.8188 471.873 59.8662C415.386 99.8282 389.368 153.085 378.645 191.572C372.997 210.924 370.961 227.098 370.658 238.663C370.55 241.039 370.498 243.143 370.463 245.068C357.521 264.508 345.172 284.818 333.504 305.889C332.499 307.813 331.567 309.699 330.59 311.61C330.118 312.098 329.681 312.621 329.386 313.273C328.571 315.067 327.807 316.874 327 318.657C307.161 358.068 291.529 395.358 279.45 432.183C278.505 403.709 274.111 375.089 266.443 347.145C266.855 346.322 267.273 345.477 267.703 344.563C272.263 335.46 276.736 322.278 279.378 305.266C284.707 271.856 278.763 222.001 244.385 179.812C210.313 137.625 165.845 111.662 131.824 97.3701C114.814 90.0231 100.062 85.5627 89.6336 82.8202C79.2671 80.0214 73.2627 78.8475 73.2627 78.8475L72.841 79.339C72.841 79.339 75.0867 85.5703 78.5631 95.203C82.8422 105.808 88.6498 120.171 94.7121 135.191C108.421 167.647 126.385 208.712 147.224 246.589C168.163 284.239 194.716 308.326 218.036 327.437C229.44 336.857 240.378 344.431 247.644 349.924C249.209 351.04 250.622 352.028 251.946 352.929C265.777 404.281 267.919 457.924 257.768 508.244C256.941 511.079 256.102 513.904 255.294 516.746C255.13 517.177 254.924 517.584 254.771 518.024C254.637 518.383 254.681 518.75 254.607 519.112C238.614 575.513 225.594 632.754 214.808 690.385C210.757 668.4 204.874 647.585 198.932 628.738C192.498 608.891 185.086 589.063 176.886 569.379C179.866 559.287 183.381 543.583 184.275 523.683C185.311 486.767 177.526 439.808 146.762 393.716C115.843 347.731 75.5557 311.464 43.1619 288.066C10.7798 264.52 -13.4697 253.216 -13.4697 253.216L-13.9924 253.602C-13.9924 253.602 -9.84088 280.025 -0.714847 317.785C8.54373 355.587 22.1988 404.647 44.2698 452.005C66.1689 499.402 99.2438 531.199 124.936 550.791C140.628 563.187 154.593 571.967 163.247 577.01C171.009 595.747 178.002 614.606 184.11 633.453C194.681 667.059 205.358 706.966 204.34 748.213C204.323 748.804 204.523 749.329 204.638 749.883C194.295 816.951 187.547 884.569 184.354 952.389C175.213 907.779 163.677 867.337 149.655 830.458C152.742 819.863 156.313 803.319 156.949 781.999C157.894 744.074 146.447 688.309 103.181 640.095C60.1986 591.877 4.90755 564.052 -36.2848 550.961C-56.6291 543.611 -74.5548 540.657 -86.6716 538.391C-98.8615 536.252 -105.765 535.519 -105.765 535.519L-106.1 536.079C-106.1 536.079 -101.98 542.478 -95.607 552.391C-88.936 562.661 -78.7332 576.224 -67.8593 593.511C-44.9283 626.991 -17.2581 670.414 10.7015 713.224C38.7584 755.699 70.3247 785.705 97.29 808.4C110.351 819.709 122.322 828.541 131.155 834.504C132.831 835.725 134.35 836.788 135.762 837.766C155.96 891.357 170.859 952.699 180.829 1023.75C181.006 1025.06 181.591 1026.18 182.318 1027.18C181.991 1061.9 182.508 1096.63 183.962 1131.33C171.526 1092.87 157.996 1059.36 142.692 1029.14C144.918 1018.82 147.125 1002.92 145.973 982.96C143.91 947.277 129.556 896.143 86.0084 855.247C42.5513 814.537 -10.1775 792.473 -49.0484 781.82C-88.8651 772.113 -115.106 771.214 -115.106 771.214L-115.43 771.782C-115.43 771.782 -101.1 794.929 -79.0134 825.531C-57.4804 857.325 -30.1897 897.166 -0.655072 935.19C28.74 973.113 61.1836 997.828 89.4173 1015.47C106.208 1026.07 120.796 1033.66 129.741 1038.02C152.147 1082.69 170.716 1134.87 187.711 1200.21C189.749 1230.36 193.193 1260.38 197.016 1290.37C197.69 1296.49 198.434 1302.63 199.177 1308.76C184.754 1281.07 167.187 1254.56 146.895 1229.69C146.806 1228.62 146.715 1227.54 146.595 1226.36C145.732 1214.4 142.17 1198.23 134.938 1178.52C120.465 1139.92 86.3594 1089.01 26.4641 1056.06C-33.2313 1023.22 -95.9589 1009.63 -142.132 1005.56C-165.068 1002.78 -184.522 1003.44 -197.745 1003.32C-210.394 1003.74 -218.559 1004.01 -218.559 1004.01L-218.78 1004.63C-218.78 1004.63 -212.794 1010.23 -203.509 1018.92C-192.664 1028.33 -177.969 1041.08 -162.541 1054.47C-128.234 1083.04 -83.7748 1120.82 -37.0303 1155.4C9.60311 1189.96 52.9259 1209.63 87.8368 1223.66C104.87 1230.79 120.253 1235.6 130.441 1239.45C132.65 1240.21 134.568 1240.83 136.392 1241.41C167.128 1279.47 191.165 1321.55 207.238 1365.48C209.187 1377.1 211.261 1388.71 213.673 1400.26C218.22 1423.43 223.526 1446.47 229.462 1469.37C197.585 1431.36 158.081 1396.48 110.268 1364.12C109.863 1363.11 109.437 1362.09 108.972 1360.99C104.251 1350.45 97.1893 1334.38 84.8156 1318C61.2086 1283.78 17.5949 1243.65 -46.6786 1221.89C-110.883 1200.22 -175.668 1196.72 -222.657 1199.69C-269.9 1202.74 -299.51 1211.06 -299.51 1211.06L-299.608 1211.71C-299.608 1211.71 -273.556 1228.33 -234.864 1251.25C-196.037 1274.33 -145.115 1304.48 -90.9124 1331.17C-36.8761 1357.85 12.8799 1367.77 50.8075 1373.65C70.1783 1375.81 85.6006 1377.84 97.1617 1378.08C99.4582 1378.18 101.514 1378.23 103.411 1378.27C161.406 1417.8 206.678 1461.06 240.487 1509.24C251.067 1544.64 263.41 1579.54 277.669 1613.72C278.979 1616.89 280.402 1620.01 281.75 1623.17C263.821 1606.99 243.073 1591.42 219.121 1576.3C197.263 1562.69 174.078 1550.12 149.836 1538.63C143.4 1528.36 132.537 1513.21 115.878 1496.42C85.9035 1465.7 35.1245 1431.98 -33.7916 1418.88C-102.647 1405.87 -169.579 1410.57 -217.543 1419.16C-241.579 1423.25 -261.057 1428.47 -274.495 1432.61C-287.16 1436.67 -295.338 1439.29 -295.338 1439.29L-295.368 1439.94C-295.368 1439.94 -287.58 1443.57 -275.511 1449.21C-261.664 1455.2 -242.913 1463.32 -223.193 1471.86C-179.848 1490.15 -122.741 1513.73 -62.3937 1533.24C-2.20621 1552.82 50.9478 1556.06 90.8095 1556.63C114.802 1556.77 134.05 1555.12 145.58 1553.79C168.411 1564.72 190.231 1576.62 210.841 1589.46C248.931 1613.51 278.582 1638.57 301.063 1665.5C313.777 1691.45 327.791 1716.79 343.042 1741.4C324.954 1731.36 304.935 1722.05 282.626 1713.36C261.774 1705.29 240.142 1698.41 218 1692.58C211.207 1684.01 199.957 1671.61 183.38 1658.7C153.502 1635.51 104.034 1612.26 41.3037 1615.36C-21.2816 1618.37 -78.3713 1641.42 -115.092 1664.8C-133.731 1676.14 -147.522 1687.66 -156.577 1696.32C-165.715 1704.69 -170.404 1709.67 -170.404 1709.67L-170.165 1710.28C-170.165 1710.28 -162.624 1710.93 -150.95 1711.96C-139.015 1712.54 -122.17 1713.84 -102.293 1716.22C-62.5548 1720.26 -12.3142 1728.09 39.646 1733.23C91.4326 1738.32 135.69 1730.72 169.781 1722.49C190.202 1717.6 206.553 1711.9 216.295 1708.17C237.1 1713.72 257.408 1720.27 277.016 1727.86C311.172 1741.15 339.076 1755.38 362.849 1771.72C371.177 1783.95 379.751 1796.03 388.74 1807.81C389.966 1809.37 391.21 1810.92 392.444 1812.46C392.588 1812.76 392.703 1813.07 392.847 1813.37C393.446 1814.61 394.398 1815.51 395.457 1816.25C402.661 1825.24 410.026 1834.09 417.567 1842.79C374.827 1827.58 326.785 1818.79 271.283 1816.01C262.641 1808.86 248.642 1798.81 229.08 1789.47C194.107 1773.36 139.358 1759.66 76.3669 1776.41C13.5315 1792.82 -39.9092 1829.15 -71.0509 1862.28C-86.7521 1879.07 -97.6157 1893.92 -103.798 1905.52C-110.31 1916.59 -113.337 1922.84 -113.337 1922.84L-112.915 1923.34C-112.915 1923.34 -105.375 1921.53 -93.6887 1918.72C-87.6585 1917.32 -80.8262 1915.17 -72.6424 1913.49C-64.0499 1911.95 -54.7671 1910.29 -45.2438 1908.58C-5.28336 1901.94 46.0481 1898.15 99.3205 1892.05C152.402 1885.75 195.788 1870.2 228.548 1854.7C244.776 1847.64 258.113 1839.94 267.377 1834.5C269.206 1833.48 270.819 1832.54 272.322 1831.66C338.656 1835.15 393.817 1847.46 441.74 1869.36C457.81 1886.14 474.791 1902.1 492.947 1916.97C439.182 1913.22 382.836 1914.85 324.594 1921.71L324.611 1921.77Z" fill="#F1D6C0" fill-opacity="0.5"/>
</svg>
