<svg width="24" height="24" viewBox="0 0 24 24" fill="none" xmlns="http://www.w3.org/2000/svg">
<path d="M22.7221 4.51562H1.28575H1.09984H0.648672H0.337891V19.4493H23.6714V4.51562H22.8643H22.7221ZM21.7888 5.449L12.7743 14.4634C12.3633 14.8744 11.6459 14.8744 11.2349 14.4634L2.21908 5.449H21.7888ZM1.27117 5.82081L7.3315 11.8802L1.27117 17.9406V5.82081ZM2.01583 18.5158L7.99188 12.5406L10.575 15.1233C10.9564 15.5052 11.4646 15.7158 12.0046 15.7158C12.5447 15.7158 13.0528 15.5052 13.4342 15.1233L16.0173 12.5402L21.9929 18.5158H2.01583ZM22.7381 17.9411L16.6777 11.8803L22.738 5.8195V17.9411H22.7381Z" fill="#37404D"/>
</svg>
