<svg width="24" height="29" viewBox="0 0 24 29" fill="none" xmlns="http://www.w3.org/2000/svg">
<g clip-path="url(#clip0_951_653)">
<path d="M0.712184 22.5999C0.712184 22.5999 -3.73755 9.84173 9.58984 0L0.712184 22.5999Z" fill="#131313"/>
<path opacity="0.5" d="M0.963242 22.7529C0.963242 22.7529 13.0577 16.1425 9.91115 0.179688L0.960819 22.7529H0.963242Z" fill="#131313"/>
<path d="M5.65606 21.6926C5.65606 21.6926 15.9047 25.4326 24 14.7891L5.65606 21.6926Z" fill="#131313"/>
<path opacity="0.7" d="M5.53724 21.4895C5.53724 21.4895 11.014 11.8053 23.8594 14.5303L5.53724 21.4895Z" fill="#131313"/>
<path opacity="0.7" d="M3.72141 26.3516C3.72141 26.3516 9.23936 31.5183 17.2305 26.7609L3.72141 26.3516Z" fill="#131313"/>
<path opacity="0.4" d="M3.69945 26.1929C3.69945 26.1929 9.76969 21.358 17.2109 26.5586L3.69945 26.1929Z" fill="#131313"/>
</g>
<defs>
<clipPath id="clip0_951_653">
<rect width="24" height="28.7767" fill="white" transform="matrix(-1 0 0 1 24 0)"/>
</clipPath>
</defs>
</svg>
