<svg width="155" height="7" viewBox="0 0 155 7" fill="none" xmlns="http://www.w3.org/2000/svg">
<path d="M0.0265025 6.18218C3.34594 5.34073 6.65876 4.42567 9.98483 3.66837C17.379 1.98549 24.8196 0.775912 32.2999 0.428817C40.0122 0.0712042 47.7377 -0.0655272 55.4565 0.029135C72.4778 0.239496 89.4924 0.765394 106.507 0.954718C122.018 1.12301 137.522 1.00731 153.032 1.00731C153.688 1.00731 154.344 1.00731 155 1.00731C155 1.12301 155 1.23871 155 1.3544C153.754 1.3544 152.515 1.31233 151.27 1.3544C139.741 1.79616 128.219 2.37465 116.691 2.66916C102.399 3.03729 88.1076 3.28972 73.8228 3.3949C65.183 3.45801 56.5431 2.90055 47.9033 3.04781C39.7935 3.19506 31.6838 3.83666 23.5806 4.39411C17.6109 4.81483 11.6479 5.45643 5.68479 6.01389C3.78986 6.19269 1.89493 6.43461 0 6.64497C0 6.4872 0.0132513 6.32943 0.0198769 6.17166L0.0265025 6.18218Z" fill="#131313"/>
</svg>
