<svg width="21" height="20" viewBox="0 0 21 20" fill="none" xmlns="http://www.w3.org/2000/svg">
<path d="M13.383 19.2972C7.26253 18.5897 1.91947 13.6866 0.850824 8.09459C0.698416 5.90873 1.06927 2.94572 3.05716 1.71162C4.55934 0.246811 9.22022 4.14521 8.30956 6.35118C7.79124 7.13701 5.24002 7.80365 5.7579 9.15793C6.78279 11.2027 8.60946 13.2256 10.8328 13.9051C13.4488 14.7761 13.006 12.8156 14.1972 11.6477C16.1261 9.62787 21.7362 14.3387 19.4943 16.2224C19.0457 16.996 16.349 19.1558 13.383 19.2972V19.2972Z" stroke="#333333" stroke-width="1.032" stroke-linecap="round" stroke-linejoin="round"/>
<path d="M3.10742 10.2051C4.90655 13.199 6.59712 14.7544 8.57346 16.158" stroke="#333333" stroke-width="1.032" stroke-linecap="round" stroke-linejoin="round"/>
</svg>
