<svg width="294" height="879" viewBox="0 0 294 879" fill="none" xmlns="http://www.w3.org/2000/svg">
<path opacity="0.3" d="M200.072 827.74C200.462 827.512 200.861 827.285 201.295 827.041C205.428 824.705 211.545 821.719 219.37 819.419C234.937 814.601 257.912 812.145 282.693 821.058C307.458 829.902 328.201 844.365 342.19 856.428C349.213 862.473 354.634 867.883 358.276 871.85C361.683 875.659 363.883 878.115 363.883 878.115L363.769 878.372C363.769 878.372 360.49 878.381 355.407 878.398C350.139 878.266 342.607 878.084 333.681 877.595C315.786 876.599 292.453 874.686 269.131 869.999C245.856 865.263 228.114 855.772 215.256 847.221C208.879 842.858 203.81 838.889 200.326 835.937C199.626 835.338 199.008 834.791 198.439 834.279C170.666 831.062 143.967 830.783 118.73 833.421C113.369 837.373 107.779 841.115 101.904 844.582L101.846 844.617C98.6734 846.451 94.6361 845.335 92.8346 842.124C91.0332 838.913 92.1473 834.83 95.3244 832.992L95.9606 832.624C100.947 829.744 105.796 826.483 110.562 823.044C114.626 813.728 115.789 803.06 113.442 793.181C111.942 786.165 109.088 779.056 104.925 771.739C104.57 771.641 104.214 771.548 103.822 771.442C99.7144 770.355 94.6983 768.563 88.623 766.527C76.7106 762.17 62.144 756.43 48.9 743.122C35.5778 729.804 23.773 714.437 15.0548 702.206C6.3751 689.968 0.902207 680.978 0.902207 680.978L1.0359 680.732C1.0359 680.732 11.468 680.1 26.7652 682.66C42.0166 685.186 62.3614 690.983 80.6213 703.679C98.8973 716.415 108.15 734.916 110.65 749.368C112.209 758.131 111.693 764.956 111.029 769.042C115.336 776.723 118.301 784.226 119.893 791.662C121.787 799.642 121.769 807.92 119.991 815.807C124.164 812.406 128.269 808.879 132.236 805.146C132.246 804.539 132.365 803.928 132.718 803.383C140.699 791.063 144.2 775.039 142.607 758.232C141.94 750.285 140.21 742.114 137.39 733.369C137.071 733.175 136.748 732.98 136.41 732.775C132.599 730.565 127.704 727.314 122.22 723.329C111.012 715.245 97.7726 704.548 87.2448 687.048C76.7075 669.488 68.006 650.702 61.5199 636.027C58.6252 629.263 55.8612 622.802 53.8171 618.028C52.1358 613.708 51.047 610.92 51.047 610.92L51.2271 610.705C51.2271 610.705 53.8969 611.295 58.5168 612.667C63.1976 613.983 69.7182 616.238 77.3176 619.69C92.4782 626.532 112.072 638.466 127.645 656.815C143.272 675.17 148.03 696.618 147.575 711.824C147.333 719.535 145.887 725.759 144.772 729.85C144.508 730.731 144.24 731.51 143.984 732.219C146.78 741.096 148.509 749.448 149.198 757.6C150.335 769.575 149.023 781.205 145.542 791.647C151.693 784.997 157.578 778.092 163.098 771.034C166.255 766.929 169.282 762.72 172.256 758.466C175.127 746.95 176.215 734.571 175.428 721.836C174.904 711.954 173.429 701.803 171.027 691.232C170.695 690.939 170.359 690.641 170.002 690.319C166.431 687.045 161.596 682.347 155.868 676.567C144.702 664.821 131.386 649.045 120.387 626.423C109.459 603.721 100.422 580.387 94.0427 562.306C87.4378 544.439 83.9905 531.8 83.9905 531.8L84.2041 531.618C84.2041 531.618 95.7251 537.12 111.875 548.275C127.747 559.599 148.164 577.133 163.874 600.961C179.701 624.752 183.389 650.128 182.21 667.622C181.83 676.377 180.084 683.409 178.583 688.139C178.282 689.126 177.995 689.987 177.722 690.774C180.062 701.333 181.507 711.502 182.03 721.421C182.52 729.321 182.307 737.099 181.438 744.646C190.94 729.572 199.331 713.753 206.593 697.397C209.336 668.548 208.634 641.188 204.345 615.748C204.023 615.435 203.694 615.117 203.344 614.77C199.808 611.382 195.519 606.331 190.116 600.315C179.809 587.941 167.768 571.967 157.623 550.748C147.567 529.371 137.612 507.884 129.219 491.299C125.135 482.969 121.526 476.005 118.952 471.13C116.604 466.32 115.089 463.22 115.089 463.22L115.262 462.999C115.262 462.999 118.277 463.838 123.557 465.686C128.901 467.462 136.418 470.376 145.091 475.035C162.433 484.042 185.012 500.588 201.116 525.308C217.378 550.03 219.392 576.013 216.961 593.095C216.085 601.706 213.633 608.536 212.026 613.076C211.669 614.038 211.33 614.885 211.013 615.654C214.281 635.509 215.426 656.475 214.532 678.354C224.274 653.291 231.748 627.286 237.161 600.835C239.1 591.878 240.657 582.837 242.023 573.752C242.003 573.678 241.964 573.614 241.953 573.537C237.394 548.783 228.798 524.72 216.833 502.815C212.772 501.265 206.766 498.788 199.961 495.389C187.319 489.149 172.786 480.164 159.755 466.573C146.714 452.858 134.554 439.451 122.533 430.983C116.632 427.036 110.975 423.385 106.764 421.8C102.575 419.892 99.8695 418.66 99.8695 418.66L99.8361 418.381C99.8361 418.381 102.058 416.928 106.573 414.641C111.091 412.06 118.039 410.005 127.229 408.637C145.448 406.127 171.754 412.122 192.398 427.904C213.284 443.639 220.897 464.867 223.057 479.727C224.359 488.924 223.786 496.152 223.132 500.434C232.415 517.603 239.607 536.073 244.572 555.129C244.605 554.854 244.646 554.581 244.679 554.301C246.855 538.697 248.845 523.071 249.718 507.332C250.56 496.499 251.133 485.642 251.581 474.783C244.977 454.123 235.975 434.397 224.694 415.907C224.325 415.813 223.95 415.713 223.549 415.606C219.595 414.562 214.38 412.76 208.26 410.401C196.335 405.307 182.024 397.853 170.549 383.422C159.012 368.953 149.332 352.948 142.008 340.188C134.714 327.485 130.112 318.156 130.112 318.156L130.265 317.92C130.265 317.92 140.526 318.02 155.397 321.776C170.179 325.501 189.807 333.286 206.225 347.6C222.653 361.948 229.369 380.238 230.855 394.003C231.832 400.791 231.404 406.71 230.985 410.732C230.896 411.55 230.796 412.277 230.699 412.95C239.138 426.854 246.297 441.45 252.181 456.59C252.641 433.843 252.245 411.075 250.897 388.357C250.522 387.927 250.243 387.404 250.123 386.802C245.61 363.93 232.773 341.713 214.013 323.503C209.659 323.329 203.145 322.93 195.691 322.029C182.008 320.27 165.427 317.425 147.549 307.677C129.649 297.859 112.47 285.964 99.3344 276.593C86.2875 267.111 77.6916 259.855 77.6916 259.855L77.7497 259.579C77.7497 259.579 88.3745 256.186 105.048 254.492C121.671 252.67 144.687 253.007 167.654 261.086C190.695 269.102 205.618 285.873 212.484 299.606C216.752 307.962 218.486 314.984 219.194 319.243C231.938 331.748 242.034 346.057 248.802 361.202C247.493 347.006 245.868 332.836 243.814 318.728C243.088 313.888 242.311 309.051 241.509 304.21C236.872 286.215 225.623 268.883 208.604 253.31C204.642 253.588 198.769 253.832 191.983 253.523C185.815 253.199 178.841 252.432 171.365 250.11C163.533 247.555 156.428 244.014 149.378 238.62C135.352 227.736 123.446 214.643 114.179 204.349C106.01 195.028 98.5411 186.508 98.5411 186.508L98.6233 186.239C98.6233 186.239 108.143 183.365 122.97 183.301C137.709 183.171 157.63 186.133 175.714 195.314C184.787 199.838 191.898 206.148 196.788 212.031C202.026 218.171 206.03 224.864 208.657 231.013C211.888 238.485 213.076 244.867 213.519 248.769C222.827 257.361 230.507 266.48 236.395 275.98C233.067 259.097 229.258 242.299 224.852 225.68C224.737 225.493 224.575 225.347 224.497 225.13C218.52 208.289 206.479 194.444 196.676 184.272C190.636 178.108 184.031 172.164 176.863 166.325C172.418 166.38 165.765 166.248 157.946 165.401C143.491 163.638 125.918 160.543 106.95 149.266C88.2159 137.992 71.2159 124.492 58.4734 113.686C45.7705 102.897 37.6287 94.7744 37.6287 94.7744L37.7109 94.5054C37.7109 94.5054 48.9261 92.2432 66.0776 92.1699C83.1714 92.0897 106.451 94.4479 128.988 103.574C151.391 112.457 166.536 128.912 173.868 142.337C178.492 150.508 180.748 157.487 181.824 161.739C188.885 167.535 195.398 173.443 201.405 179.574C206.277 184.627 211.667 190.578 216.682 197.333C213.583 187.389 210.263 177.524 206.68 167.767C202.388 157.025 197.372 146.065 191.528 134.669C186.509 125.471 181.161 116.622 175.553 108.139C175.158 107.987 174.759 107.833 174.333 107.664C169.95 105.813 163.607 103.187 156.348 99.6101C141.866 92.2924 124.344 81.4127 107.091 65.1488C89.8441 48.759 73.5474 32.7618 59.2604 22.0705C55.77 19.1011 52.3533 17.1545 49.2908 15.001C46.2353 12.7892 43.4572 11.1176 41.0899 9.9176C36.4766 7.30394 33.5002 5.61703 33.5002 5.61703L33.513 5.3355C33.513 5.3355 36.411 4.2964 41.998 2.8143C44.8187 1.96879 48.2774 1.26294 52.2931 0.957496C56.3074 0.592766 61.1294 -0.0725166 66.151 0.312767C86.6483 0.546826 114.835 8.36334 138.656 25.5819C162.661 42.7633 173.694 65.6935 178.23 82.2696C180.62 90.6039 181.476 97.5717 181.597 102.555C181.641 103.578 181.662 104.485 181.676 105.314C187.169 113.682 192.409 122.425 197.359 131.496C197.785 132.325 198.18 133.137 198.595 133.96C198.795 134.169 198.981 134.394 199.106 134.676C199.451 135.448 199.775 136.226 200.117 136.993C208.531 153.962 215.157 170.019 220.271 185.878C220.692 173.609 222.58 161.274 225.861 149.228C225.686 148.874 225.509 148.51 225.326 148.117C223.393 144.197 221.498 138.52 220.386 131.192C218.141 116.8 220.703 95.3145 235.355 77.1133C249.879 58.9135 268.814 47.697 283.296 41.5164C290.538 38.3395 296.817 36.4078 301.255 35.2192C305.667 34.0064 308.222 33.4966 308.222 33.4966L308.401 33.7081C308.401 33.7081 307.442 36.3945 305.956 40.5473C304.129 45.1197 301.649 51.3124 299.06 57.7879C293.206 71.7818 285.537 89.4875 276.646 105.822C267.713 122.059 256.401 132.455 246.467 140.705C241.61 144.771 236.951 148.041 233.856 150.413C233.19 150.895 232.588 151.322 232.025 151.711C226.106 173.847 225.16 196.962 229.445 218.637C229.795 219.858 230.15 221.075 230.491 222.298C230.561 222.484 230.648 222.659 230.713 222.849C230.77 223.003 230.751 223.162 230.782 223.318C237.549 247.609 243.05 272.264 247.6 297.089C249.338 287.614 251.855 278.641 254.395 270.516C257.146 261.96 260.312 253.412 263.813 244.925C262.552 240.579 261.067 233.814 260.7 225.24C260.284 209.335 263.627 189.096 276.745 169.216C289.929 149.381 307.093 133.728 320.889 123.625C334.681 113.458 345.005 108.571 345.005 108.571L345.227 108.737C345.227 108.737 343.443 120.125 339.536 136.401C335.572 152.695 329.73 173.843 320.309 194.263C310.961 214.7 296.87 228.422 285.927 236.881C279.243 242.233 273.296 246.025 269.611 248.204C266.296 256.283 263.309 264.413 260.698 272.538C256.178 287.025 251.61 304.227 252.015 321.999C252.022 322.254 251.937 322.48 251.887 322.719C256.243 351.61 259.069 380.741 260.383 409.961C264.301 390.733 269.236 373.3 275.225 357.4C273.919 352.838 272.411 345.711 272.154 336.525C271.777 320.185 276.684 296.149 295.123 275.346C313.44 254.542 336.981 242.516 354.514 236.848C363.174 233.667 370.801 232.383 375.958 231.399C381.145 230.469 384.082 230.148 384.082 230.148L384.224 230.389C384.224 230.389 382.468 233.149 379.75 237.425C376.905 241.854 372.555 247.705 367.918 255.161C358.141 269.602 346.34 288.33 334.417 306.795C322.453 325.115 309.004 338.065 297.517 347.861C291.953 352.743 286.855 356.557 283.093 359.132C282.379 359.659 281.732 360.118 281.131 360.54C272.503 383.645 266.124 410.086 261.835 440.706C261.759 441.271 261.51 441.753 261.199 442.185C261.316 457.146 261.073 472.111 260.431 487.063C265.747 470.482 271.526 456.036 278.056 443.006C277.116 438.558 276.187 431.709 276.691 423.108C277.592 407.731 283.732 385.69 302.286 368.04C320.8 350.469 343.247 340.928 359.791 336.312C376.736 332.103 387.9 331.698 387.9 331.698L388.038 331.943C388.038 331.943 381.926 341.926 372.51 355.126C363.328 368.84 351.691 386.025 339.102 402.428C326.571 418.787 312.752 429.458 300.729 437.078C293.579 441.656 287.368 444.935 283.56 446.82C273.998 466.082 266.064 488.581 258.791 516.745C257.904 529.736 256.419 542.672 254.772 555.598C254.482 558.237 254.161 560.882 253.841 563.522C259.995 551.583 267.486 540.147 276.135 529.42C276.174 528.96 276.213 528.491 276.265 527.986C276.64 522.83 278.166 515.86 281.256 507.362C287.438 490.72 301.982 468.763 327.484 454.525C352.902 440.337 379.597 434.438 399.243 432.657C409.002 431.441 417.278 431.713 422.903 431.655C428.284 431.826 431.758 431.937 431.758 431.937L431.851 432.202C431.851 432.202 429.301 434.622 425.345 438.369C420.725 442.434 414.465 447.938 407.893 453.717C393.279 466.051 374.34 482.358 354.431 497.289C334.569 512.21 316.125 520.714 301.264 526.782C294.013 529.864 287.465 531.95 283.129 533.615C282.189 533.942 281.372 534.212 280.596 534.461C267.495 550.884 257.241 569.028 250.374 587.971C249.537 592.978 248.647 597.98 247.613 602.96C245.664 612.947 243.391 622.878 240.851 632.747C254.437 616.349 271.266 601.294 291.628 587.316C291.801 586.881 291.983 586.442 292.181 585.967C294.197 581.426 297.212 574.494 302.487 567.428C312.552 552.67 331.133 535.349 358.491 525.93C385.82 516.55 413.383 515.001 433.371 516.248C453.468 517.532 466.059 521.096 466.059 521.096L466.101 521.376C466.101 521.376 455.006 528.553 438.531 538.458C421.997 548.428 400.314 561.454 377.237 572.986C354.231 584.518 333.057 588.825 316.918 591.385C308.676 592.33 302.113 593.214 297.195 593.327C296.218 593.37 295.343 593.393 294.536 593.41C269.837 610.481 250.549 629.15 236.134 649.932C231.61 665.192 226.335 680.239 220.247 694.978C219.687 696.344 219.08 697.69 218.504 699.05C226.142 692.067 234.979 685.346 245.179 678.814C254.487 672.935 264.359 667.504 274.68 662.537C277.424 658.108 282.056 651.572 289.154 644.327C301.926 631.072 323.551 616.51 352.878 610.817C382.18 605.167 410.651 607.149 431.05 610.819C441.273 612.561 449.556 614.799 455.271 616.576C460.656 618.315 464.133 619.441 464.133 619.441L464.146 619.721C464.146 619.721 460.83 621.289 455.692 623.725C449.797 626.315 441.815 629.83 433.419 633.519C414.967 641.43 390.657 651.628 364.971 660.076C339.353 668.55 316.737 669.98 299.779 670.254C289.572 670.33 281.384 669.634 276.48 669.068C266.76 673.791 257.469 678.932 248.693 684.481C232.473 694.865 219.841 705.686 210.26 717.303C204.834 728.492 198.855 739.421 192.351 750.033C200.052 745.695 208.575 741.67 218.072 737.913C226.948 734.421 236.155 731.441 245.579 728.918C248.474 725.217 253.269 719.867 260.329 714.294C273.056 704.283 294.116 694.233 320.801 695.529C347.424 696.783 371.696 706.674 387.303 716.725C395.225 721.598 401.084 726.553 404.93 730.279C408.813 733.878 410.804 736.022 410.804 736.022L410.702 736.284C410.702 736.284 407.494 736.572 402.526 737.022C397.449 737.28 390.281 737.851 381.824 738.888C364.915 740.659 343.537 744.063 321.428 746.315C299.394 748.542 280.57 745.297 266.072 741.771C257.388 739.68 250.436 737.235 246.294 735.632C237.439 738.038 228.795 740.873 220.449 744.155C205.909 749.906 194.029 756.056 183.904 763.113C180.353 768.387 176.698 773.599 172.866 778.679C172.343 779.352 171.813 780.019 171.287 780.687C171.225 780.815 171.176 780.949 171.115 781.076C170.859 781.612 170.454 782.003 170.003 782.321C166.932 786.199 163.793 790.019 160.579 793.771C178.771 787.189 199.216 783.369 222.829 782.134C226.51 779.047 232.473 774.707 240.801 770.671C255.69 763.707 278.991 757.766 305.778 764.942C332.498 771.97 355.209 787.59 368.436 801.847C375.104 809.071 379.716 815.461 382.339 820.456C385.102 825.219 386.385 827.911 386.385 827.911L386.205 828.126C386.205 828.126 382.999 827.35 378.029 826.147C375.465 825.549 372.559 824.627 369.079 823.91C365.425 823.253 361.477 822.54 357.426 821.811C340.431 818.979 318.595 817.377 295.936 814.784C273.358 812.104 254.911 805.436 240.984 798.776C234.085 795.745 228.416 792.435 224.479 790.101C223.701 789.661 223.016 789.258 222.377 788.878C194.154 790.428 170.679 795.769 150.277 805.234C143.43 812.476 136.195 819.363 128.461 825.785C151.337 824.132 175.307 824.798 200.079 827.716L200.072 827.74Z" fill="#F1D6C0" fill-opacity="0.5"/>
</svg>
